# AST/ASF file generated using VICON BodyLanguage
# -----------------------------------------------
:version 1.10
:name VICON
:units
  mass 1.0
  length 0.45
  angle deg
:documentation
   .ast/.asf automatically generated from VICON data using
   VICON BodyBuilder and BodyLanguage model FoxedUp or BRILLIANT.MOD
:root
   order TX TY TZ RX RY RZ
   axis XYZ
   position 0 0 0  
   orientation 0 0 0 
:bonedata
  begin
     id 1 
     name lhipjoint
     direction 0.566809 -0.746272 0.349008 
     length 2.40479 
     axis 0 0 0  XYZ
  end
  begin
     id 2 
     name lfemur
     direction 0.34202 -0.939693 0  
     length 7.1578  
     axis 0 0 20  XYZ
    dof rx ry rz
    limits (-160.0 20.0)
           (-70.0 70.0)
           (-60.0 70.0)
  end
  begin
     id 3 
     name ltibia
     direction 0.34202 -0.939693 0   
     length 7.49137   
     axis 0 0 20   XYZ
    dof rx
    limits (-10.0 170.0)
  end
  begin
     id 4 
     name lfoot
     direction 0.0665746 -0.182912 0.980873   
     length 2.36784   
     axis -90 7.62852e-016 20   XYZ
    dof rx rz
    limits (-45.0 90.0)
           (-70.0 20.0)
  end
  begin
     id 5 
     name ltoes
     direction 1.53601e-011 -4.22058e-011 1   
     length 1.18966   
     axis -90 7.62852e-016 20   XYZ
    dof rx
    limits (-90.0 20.0)
  end
  begin
     id 6 
     name rhipjoint
     direction -0.550236 -0.756381 0.353735   
     length 2.37265  
     axis 0 0 0  XYZ 
  end
  begin
     id 7 
     name rfemur
     direction -0.34202 -0.939693 0   
     length 7.43386   
     axis 0 0 -20   XYZ
    dof rx ry rz
    limits (-160.0 20.0)
           (-70.0 70.0)
           (-70.0 60.0)
  end
  begin
     id 8 
     name rtibia
     direction -0.34202 -0.939693 0   
     length 7.50908   
     axis 0 0 -20   XYZ
    dof rx
    limits (-10.0 170.0)
 end
 begin
     id 9 
     name rfoot
     direction -0.0683029 -0.187661 0.979856   
     length 2.41173  
     axis -90 -7.62852e-016 -20   XYZ
    dof rx rz
    limits (-45.0 90.0)
           (-20.0 70.0)
  end
  begin
     id 10 
     name rtoes
     direction -1.53528e-011 -4.21968e-011 1   
     length 1.21082   
     axis -90 -7.62852e-016 -20   XYZ
    dof rx
    limits (-90.0 20.0)
  end
  begin
     id 11 
     name lowerback
     direction 0.013823 0.995423 -0.0945635   
     length 2.04495   
     axis 0 0 0   XYZ
    dof rx ry rz
    limits (-20.0 45.0)
           (-30.0 30.0)
           (-30.0 30.0)
  end
  begin
     id 12 
     name upperback
     direction 0.0276657 0.9994 -0.020853   
     length 2.05008   
     axis 0 0 0   XYZ
    dof rx ry rz
    limits (-20.0 45.0)
           (-30.0 30.0)
           (-30.0 30.0)
  end
  begin
     id 13 
     name thorax
     direction 0.019782 0.999531 0.0233827   
     length 2.06488   
     axis 0 0 0   XYZ
    dof rx ry rz
    limits (-20.0 45.0)
           (-30.0 30.0)
           (-30.0 30.0)
  end
  begin
     id 14 
     name lowerneck
     direction -0.0308541 0.994709 0.0979874   
     length 1.75553   
     axis 0 0 0   XYZ
    dof rx ry rz
    limits (-20.0 45.0)
           (-30.0 30.0)
           (-30.0 30.0)
  end
  begin
     id 15 
     name upperneck
     direction 0.0588398 0.995804 -0.0700903   
     length 1.76878   
     axis 0 0 0   XYZ
    dof rx ry rz
    limits (-20.0 45.0)
           (-30.0 30.0)
           (-30.0 30.0)
  end
  begin
     id 16
     name head
     direction 0.0209966 0.999159 -0.0352225  
     length 1.77193  
     axis 0 0 0   XYZ
    dof rx ry rz
    limits (-20.0 45.0)
           (-30.0 30.0)
           (-30.0 30.0)
  end
  begin
     id 17 
     name lclavicle
     direction 0.938182 0.335073 -0.0868338  
     length 3.58396  
     axis 0 0 0   XYZ
    dof ry rz
    limits (-20.0 10.0)
           (0.0 20.0)
  end
  begin
     id 18 
     name lhumerus
     direction 1 -4.48971e-011 -1.26313e-017   
     length 4.983   
     axis 180 -30 -90   XYZ
    dof rx ry rz
    limits (-60.0 90.0)
           (-90.0 90.0)
           (-90.0 90.0)
  end
  begin
     id 19
     name lradius
     direction 1 -4.48948e-011 -5.89033e-027   
     length 3.48356   
     axis 180 -30 -90   XYZ
    dof rx
    limits (-10.0 170.0)
  end
  begin
     id 20
     name lwrist
     direction 1 -4.48977e-011 -1.48983e-026   
     length 1.74178   
     axis 9.0955e-015 90 90   XYZ
    dof ry
    limits (-180.0 0.0)
 end
  begin
     id 21 
     name lhand
     direction 1 -4.49046e-011 -2.98066e-026   
     length 0.715259   
     axis 1.90115e-014 90 90   XYZ
    dof rx rz
    limits (-90.0 90.0)
           (-45.0 45.0)
  end
  begin
     id 22 
     name lfingers
     direction 1 -4.48907e-011 -5.95731e-026   
     length 0.576661   
     axis 3.80223e-014 90 90   XYZ
    dof rx
    limits (0.0 90.0)
  end
  begin
     id 23
     name lthumb
     direction 0.707107 -6.34963e-011 0.707107   
     length 0.827973   
     axis -90 45 -3.84942e-014   XYZ
    dof rx rz
    limits (-45.0 45.0)
           (-45.0 45.0)
  end
  begin
     id 24 
     name rclavicle
     direction -0.909637 0.398485 -0.11735   
     length 3.44819  
     axis 0 0 0   XYZ 
    dof ry rz
    limits (-10.0 20.0)
           (-20.0 0.0)
  end
  begin
     id 25 
     name rhumerus
     direction -1 -4.48978e-011 -1.09333e-027  
     length 5.2419   
     axis 180 30 90   XYZ
    dof rx ry rz
    limits (-90.0 60.0)
           (-90.0 90.0)
           (-90.0 90.0)
  end
  begin
     id 26 
     name rradius
     direction -1 -4.48953e-011 -7.61841e-027   
     length 3.44417   
     axis 180 30 90   XYZ
    dof rx
    limits (-10.0 170.0)
  end
  begin
     id 27 
     name rwrist
     direction -1 -4.48977e-011 -1.48983e-026   
     length 1.72209   
     axis 9.0955e-015 -90 -90   XYZ
    dof ry
    limits (-180.0 0.0)
  end
  begin
     id 28
     name rhand
     direction -1 -4.49027e-011 -2.98038e-026   
     length 0.622529   
     axis 1.90115e-014 -90 -90   XYZ
    dof rx rz
    limits (-90.0 90.0)
           (-45.0 45.0)
  end
  begin
     id 29
     name rfingers
     direction -1 -4.48838e-011 -5.95531e-026   
     length 0.501899   
     axis 3.80223e-014 -90 -90   XYZ
    dof rx
    limits (0.0 90.0)
  end
  begin
     id 30
     name rthumb
     direction -0.707107 -6.34937e-011 0.707107   
     length 0.720629   
     axis -90 -45 3.84942e-014   XYZ
    dof rx rz
    limits (-45.0 45.0)
           (-45.0 45.0)
  end
:hierarchy
  begin
    root lhipjoint rhipjoint lowerback
    lhipjoint lfemur
    lfemur ltibia
    ltibia lfoot
    lfoot ltoes
    rhipjoint rfemur
    rfemur rtibia
    rtibia rfoot
    rfoot rtoes
    lowerback upperback
    upperback thorax
    thorax lowerneck lclavicle rclavicle
    lowerneck upperneck
    upperneck head
    lclavicle lhumerus
    lhumerus lradius
    lradius lwrist
    lwrist lhand lthumb
    lhand lfingers
    rclavicle rhumerus
    rhumerus rradius
    rradius rwrist
    rwrist rhand rthumb
    rhand rfingers
  end

#!OML:ASF F:\VICON\USERDATA\Patient Classification 1\PLAYGROUND\JustinFriday\JustinFriday.ASF
:FULLY-SPECIFIED
:DEGREES
958
root 26.4545 30.8495 -9.51775 125.074 -85.4391 -89.6948
lowerback 29.4209 3.07663 0.561163
upperback 9.24754 3.38572 3.00124
thorax -5.92664 1.22514 1.9131
lowerneck -1.84101 7.27324 -3.26119
upperneck -22.0993 8.44468 -6.37795
head -6.28783 4.61935 -1.87186
rclavicle -4.05521e-014 -1.43125e-014
rhumerus -16.8658 17.5971 -83.169
rradius 75.4191
rwrist 28.0752
rhand -61.494 24.4439
rfingers 7.12502
rthumb -33.5729 -2.43363
lclavicle -4.05521e-014 -1.43125e-014
lhumerus -17.932 -22.2358 93.0632
lradius 74.7714
lwrist -42.5133
lhand -39.5342 -41.2685
lfingers 7.12502
lthumb -12.5187 -11.6635
rfemur -24.8388 3.52506 27.166
rtibia 25.1977
rfoot -33.9941 -4.92682
rtoes 11.4607
lfemur -31.9905 2.61879 -15.5632
ltibia 36.2649
lfoot -33.3394 -3.06695
ltoes 5.85856
959
root 26.5005 30.8594 -9.50523 124.881 -85.3441 -89.399
lowerback 29.583 2.94898 0.678783
upperback 9.31038 3.24343 2.97068
thorax -5.91797 1.15321 1.85705
lowerneck -2.14778 7.51679 -3.14018
upperneck -21.92 8.81684 -6.40069
head -6.16483 4.78882 -1.89515
rclavicle -2.90226e-014 -3.22031e-014
rhumerus -16.6645 17.8209 -83.092
rradius 76.1774
rwrist 27.9617
rhand -61.1785 24.0318
rfingers 7.12502
rthumb -33.2731 -2.91034
lclavicle -2.90226e-014 -3.22031e-014
lhumerus -18.1519 -23.0755 92.4613
lradius 76.398
lwrist -41.7885
lhand -39.3015 -39.6894
lfingers 7.12502
lthumb -12.2944 -10.0708
rfemur -25.0739 3.4111 27.2454
rtibia 25.1198
rfoot -34.0764 -5.14907
rtoes 10.5764
lfemur -32.3214 2.77043 -15.5238
ltibia 36.441
lfoot -33.523 -3.83655
ltoes 7.21158
960
root 26.5422 30.8572 -9.492 124.928 -84.8487 -89.3285
lowerback 29.5771 2.93304 1.15963
upperback 9.43526 3.32851 2.9591
thorax -5.74685 1.18816 1.54215
lowerneck -2.37719 7.487 -2.35151
upperneck -21.9093 8.73043 -6.84734
head -6.05674 4.70929 -2.14212
rclavicle -2.8625e-014 9.93923e-016
rhumerus -16.5445 17.7553 -83.0354
rradius 77.0471
rwrist 27.8627
rhand -60.9446 23.827
rfingers 7.12502
rthumb -33.0506 -3.16255
lclavicle -2.8625e-014 9.93923e-016
lhumerus -18.0715 -22.799 92.174
lradius 77.0898
lwrist -41.885
lhand -39.0288 -39.7951
lfingers 7.12502
lthumb -12.0314 -10.1609
rfemur -25.3172 3.35221 27.7391
rtibia 25.1595
rfoot -33.9953 -5.55407
rtoes 8.75294
lfemur -32.7157 4.09577 -15.4552
ltibia 36.5947
lfoot -33.6913 -3.94712
ltoes 4.93909
961
root 26.5975 30.8516 -9.48075 124.427 -84.6494 -88.7546
lowerback 29.8469 3.01846 1.6074
upperback 9.51237 3.54396 3.00551
thorax -5.7637 1.28306 1.26014
lowerneck -3.29343 7.29341 -2.25528
upperneck -20.9636 8.57335 -6.63816
head -5.61039 4.58954 -2.01511
rclavicle -8.74653e-015 1.31198e-014
rhumerus -16.5772 17.3123 -82.6487
rradius 78.1218
rwrist 27.7775
rhand -60.542 23.6212
rfingers 7.12502
rthumb -32.6677 -3.44856
lclavicle -8.74653e-015 1.31198e-014
lhumerus -17.4296 -22.5773 92.2794
lradius 77.1747
lwrist -42.237
lhand -38.9593 -40.394
lfingers 7.12502
lthumb -11.9644 -10.7559
rfemur -25.6484 3.43752 27.9016
rtibia 25.3596
rfoot -34.0549 -5.86171
rtoes 8.38872
lfemur -33.1214 5.30414 -15.7101
ltibia 36.6532
lfoot -33.8114 -3.14636
ltoes 1.44915
962
root 26.6691 30.8571 -9.47769 131.791 -85.2059 -96.2375
lowerback 30.4881 3.36555 0.842086
upperback 9.58153 3.74364 2.8851
thorax -6.02999 1.36436 1.48141
lowerneck -3.71268 7.17707 -2.23587
upperneck -20.5439 8.42226 -6.78036
head -5.40335 4.51323 -2.02616
rclavicle 7.15625e-015 -2.24627e-014
rhumerus -16.4442 16.8925 -82.2365
rradius 78.996
rwrist 27.8841
rhand -60.0269 23.2479
rfingers 7.12502
rthumb -32.1774 -3.92229
lclavicle 7.15625e-015 -2.24627e-014
lhumerus -17.3933 -23.2278 92.7954
lradius 78.0138
lwrist -42.4753
lhand -39.1653 -39.9695
lfingers 7.12502
lthumb -12.1631 -10.3431
rfemur -25.9648 3.8965 26.8992
rtibia 25.6682
rfoot -34.4016 -5.52192
rtoes 10.3433
lfemur -33.2361 5.92234 -16.8206
ltibia 36.6166
lfoot -33.9334 -2.74634
ltoes -0.109549
963
root 26.7385 30.8672 -9.4802 144.342 -85.6342 -108.97
lowerback 30.9776 3.85723 -0.406995
upperback 9.79353 3.95682 2.80453
thorax -6.10132 1.44518 2.02493
lowerneck -4.09116 7.16968 -2.29074
upperneck -20.2624 8.39059 -7.08656
head -5.2412 4.51211 -2.0864
rclavicle -1.11319e-014 1.53064e-014
rhumerus -15.9242 16.5883 -81.8159
rradius 79.5611
rwrist 28.1074
rhand -59.5968 22.7815
rfingers 7.12502
rthumb -31.7679 -4.47069
lclavicle -1.11319e-014 1.53064e-014
lhumerus -16.8561 -23.6072 92.1101
lradius 79.0025
lwrist -41.7237
lhand -38.8949 -39.7597
lfingers 7.12502
lthumb -11.9023 -10.118
rfemur -26.2365 4.24028 25.8257
rtibia 25.968
rfoot -34.6498 -5.44783
rtoes 10.6762
lfemur -33.2265 6.66009 -18.0341
ltibia 36.5547
lfoot -34.0412 -3.24658
ltoes -0.209821
964
root 26.7996 30.8801 -9.448 132.834 -86.4429 -96.034
lowerback 29.3541 3.19128 0.226047
upperback 9.7937 3.36041 2.95328
thorax -5.29712 1.19256 2.07119
lowerneck -4.48799 7.22617 -2.51321
upperneck -19.9239 8.47326 -7.28019
head -5.07075 4.57106 -2.08648
rclavicle -4.29375e-014 -2.32578e-014
rhumerus -15.4376 16.7181 -81.2732
rradius 80.3389
rwrist 28.1547
rhand -59.3771 21.4438
rfingers 7.12502
rthumb -31.5587 -5.84968
lclavicle -4.29375e-014 -2.32578e-014
lhumerus -16.1681 -23.0174 92.4477
lradius 79.3032
lwrist -42.0737
lhand -38.4066 -39.421
lfingers 7.12502
lthumb -11.4314 -9.75264
rfemur -28.1934 3.66663 25.6106
rtibia 26.2004
rfoot -34.6802 -6.23382
rtoes 9.93829
lfemur -35.1582 5.02034 -18.0838
ltibia 36.5196
lfoot -33.7711 -3.57518
ltoes 1.67224
965
root 26.8511 30.8786 -9.41251 114.033 -86.1434 -77.5853
lowerback 30.0819 2.46849 1.15232
upperback 10.0322 2.69409 3.347
thorax -5.31079 0.855661 2.18868
lowerneck -4.56694 7.5953 -2.63772
upperneck -20.1816 8.94604 -7.48822
head -5.12515 4.82694 -2.14808
rclavicle -6.75868e-014 -6.52014e-014
rhumerus -14.7955 17.7325 -80.9108
rradius 81.1032
rwrist 28.09
rhand -59.2255 20.039
rfingers 7.12502
rthumb -31.4142 -7.28271
lclavicle -6.75868e-014 -6.52014e-014
lhumerus -15.7905 -21.9673 92.3255
lradius 80.1119
lwrist -42.246
lhand -38.086 -38.7173
lfingers 7.12502
lthumb -11.1222 -9.03204
rfemur -28.0148 2.97969 26.3145
rtibia 26.4192
rfoot -35.1569 -5.75921
rtoes 11.1358
lfemur -35.0198 3.92219 -17.2234
ltibia 36.5141
lfoot -33.8278 -3.65402
ltoes 2.53523
966
root 26.8898 30.8816 -9.42054 117.36 -85.4537 -80.9444
lowerback 30.3125 2.59958 1.67616
upperback 10.1938 2.95694 3.23011
thorax -5.2065 0.973958 1.66825
lowerneck -4.18911 7.55088 -2.42634
upperneck -21.0646 8.8494 -7.27203
head -5.46679 4.76065 -2.15751
rclavicle 2.3059e-014 -2.5842e-015
rhumerus -14.4676 17.2382 -81.1309
rradius 81.6904
rwrist 28.3042
rhand -58.9718 19.6219
rfingers 7.12502
rthumb -31.1724 -7.74661
lclavicle 2.3059e-014 -2.5842e-015
lhumerus -15.6631 -22.7851 91.4755
lradius 81.3312
lwrist -41.9177
lhand -37.8869 -37.6426
lfingers 7.12502
lthumb -10.9302 -7.94712
rfemur -28.0981 3.22528 26.9737
rtibia 26.569
rfoot -35.6898 -4.50405
rtoes 13.3353
lfemur -35.1465 5.74433 -16.9891
ltibia 36.5744
lfoot -34.172 -4.23095
ltoes 0.847211
967
root 26.9711 30.8903 -9.40804 118.654 -85.8517 -82.2029
lowerback 30.6531 2.69482 1.32954
upperback 10.3631 2.95414 3.21273
thorax -5.18929 0.959223 1.84567
lowerneck -3.22086 7.47075 -1.99678
upperneck -22.6526 8.54297 -7.67032
head -6.09716 4.62267 -2.43493
rclavicle -2.3059e-014 -7.35503e-015
rhumerus -13.8796 16.9724 -80.7749
rradius 82.2564
rwrist 28.5111
rhand -58.8043 18.7182
rfingers 7.12502
rthumb -31.0128 -8.6808
lclavicle -2.3059e-014 -7.35503e-015
lhumerus -14.9215 -23.0197 91.4871
lradius 81.6491
lwrist -42.6678
lhand -39.6414 -35.3808
lfingers 7.12502
lthumb -12.6221 -5.78213
rfemur -28.5791 3.42343 26.4065
rtibia 26.7453
rfoot -35.8988 -4.24902
rtoes 15.2307
lfemur -35.5548 5.26581 -17.3845
ltibia 36.6968
lfoot -34.4992 -3.76687
ltoes 0.304065
968
root 27.0442 30.8926 -9.39172 118.194 -85.9576 -82.0364
lowerback 31.4911 2.35939 2.04688
upperback 10.5166 2.67042 2.61859
thorax -5.31866 0.827753 0.856838
lowerneck -3.52316 7.52112 -1.66849
upperneck -22.6831 8.74825 -7.02648
head -6.06537 4.64285 -2.27997
rclavicle -4.21423e-014 -1.19271e-014
rhumerus -13.452 16.5624 -81.4111
rradius 82.9428
rwrist 28.7074
rhand -58.5907 17.5703
rfingers 7.12502
rthumb -30.8092 -9.86739
lclavicle -4.21423e-014 -1.19271e-014
lhumerus -14.321 -23.1749 90.4369
lradius 82.3816
lwrist -42.5458
lhand -39.3361 -34.556
lfingers 7.12502
lthumb -12.3277 -4.9394
rfemur -28.6784 3.27415 26.2869
rtibia 27.0415
rfoot -35.9686 -4.4798
rtoes 15.0352
lfemur -35.4869 4.80525 -17.4002
ltibia 36.7249
lfoot -34.619 -4.14842
ltoes 1.60261
